# xmcd
#
# Track frame offsets: 
#        150
#        17463
#        33522
#        54554
#        73900
#        93524
#        117022
#        135109
#        159037
#        178752
#        196676
#        214125
#        232021
#        246500
#        266686
#
# Disc length: 3778 seconds
#
# Revision: 2
# Processed by: cddbd v1.5.2PL0 Copyright (c) Steve Scherf et al.
# Submitted via: ExactAudioCopy v0.99pb4
#
DISCID=c90ec00f
DTITLE=Various Artist - R&B 2 Sessions CD 1
DYEAR=2005
DGENRE=R&B
TTITLE0=Aaliyah - Back and Forth
TTITLE1=Lumidee - Never Leave You [Uh O, Uh Oooh!]
TTITLE2=TLC - Waterfalls
TTITLE3=Monica - Don't Take It Personal [Just One Of Dem Days]
TTITLE4=Dru Hill - This Is What We Do feat. Method Man
TTITLE5=Beverley Knight - Down For The One [2B3 Retro Mix]
TTITLE6=Tatyana Ali - Boy You Knock Me Out
TTITLE7=Blackstreet - Don't Leave Me
TTITLE8=Toni Braxton - He Wasn't Man Enough
TTITLE9=Mya - Case Of The Ex
TTITLE10=Kandi - Don't Think I'm Not
TTITLE11=Truce - Hide and Seek feat. Skibbadee [Shy FX Remix]
TTITLE12=Aftershock - With U feat. Shola Ama
TTITLE13=DJ Jazzy Jeff - How I Do feat. Shawn Stockman and Cy Young
TTITLE14=K-Ci and JoJo - All My Life
EXTD=
EXTT0=
EXTT1=
EXTT2=
EXTT3=
EXTT4=
EXTT5=
EXTT6=
EXTT7=
EXTT8=
EXTT9=
EXTT10=
EXTT11=
EXTT12=
EXTT13=
EXTT14=
PLAYORDER=
